<?xml version="1.0" encoding="UTF-8"?>
<svg width="11px" height="10px" viewBox="0 0 11 10" version="1.1" xmlns="http://www.w3.org/2000/svg" xmlns:xlink="http://www.w3.org/1999/xlink">
    <!-- Generator: Sketch 55.2 (78181) - https://sketchapp.com -->
    <title>alert-icon-red</title>
    <desc>Created with Sketch.</desc>
    <g id="Welcome" stroke="none" stroke-width="1" fill="none" fill-rule="evenodd">
        <g id="home" transform="translate(-115.000000, -331.000000)" fill="#FF0200" fill-rule="nonzero">
            <g id="alert-icon-red" transform="translate(115.000000, 331.000000)">
                <path d="M10.6082476,7.65191303 L6.78134979,0.760963502 C6.16649438,-0.252980789 4.66766397,-0.254327989 4.05198336,0.760963502 L0.225275946,7.65191303 C-0.403269253,8.68799286 0.357709272,10 1.58964178,10 L9.24356442,10 C10.4744601,10 11.2367928,8.68904989 10.6082476,7.65191303 Z M5.41666657,8.75643062 C5.06674129,8.75643062 4.78190067,8.47741511 4.78190067,8.13464594 C4.78190067,7.79187676 5.06674129,7.51286125 5.41666657,7.51286125 C5.76659186,7.51286125 6.05143248,7.79187676 6.05143248,8.13464594 C6.05143248,8.47741511 5.76659186,8.75643062 5.41666657,8.75643062 Z M6.05143248,6.26929187 C6.05143248,6.61206105 5.76659186,6.89107656 5.41666657,6.89107656 C5.06674129,6.89107656 4.78190067,6.61206105 4.78190067,6.26929187 L4.78190067,3.16036843 C4.78190067,2.81759926 5.06674129,2.53858375 5.41666657,2.53858375 C5.76659186,2.53858375 6.05143248,2.81759926 6.05143248,3.16036843 L6.05143248,6.26929187 Z" id="Shape"></path>
            </g>
        </g>
    </g>
</svg>