<?xml version="1.0" encoding="UTF-8"?>
<svg width="22px" height="27px" viewBox="0 0 22 27" version="1.1" xmlns="http://www.w3.org/2000/svg" xmlns:xlink="http://www.w3.org/1999/xlink">
    <!-- Generator: Sketch 55.2 (78181) - https://sketchapp.com -->
    <title>anomalies-icon-yellow</title>
    <desc>Created with Sketch.</desc>
    <g id="Welcome" stroke="none" stroke-width="1" fill="none" fill-rule="evenodd">
        <g id="home" transform="translate(-208.000000, -198.000000)" fill="#D1A914" fill-rule="nonzero">
            <g id="anomalies-icon-yellow" transform="translate(208.000000, 198.000000)">
                <path d="M21.3424904,21.6544219 L20.3345604,20.250791 C19.9910936,19.7724902 19.8095295,19.2091816 19.8095295,18.6218789 L19.8095295,12.4381934 C19.8095295,8.262 16.9137778,4.74456445 13.0102021,3.75869531 C13.2178932,3.38712891 13.3291317,2.96720508 13.3291317,2.53125 C13.3291317,1.1355293 12.1879699,0 10.7853261,0 C9.38268227,0 8.24152047,1.1355293 8.24152047,2.53125 C8.24152047,2.96688867 8.35265298,3.38686523 8.56029111,3.75874805 C4.65682139,4.74472266 1.76112266,8.26205273 1.76112266,12.4381934 L1.76112266,18.6218789 C1.76112266,19.2091816 1.57955853,19.7724375 1.23603878,20.250791 L0.228161798,21.6544219 C-0.0387258082,22.026041 -0.0740741071,22.5090879 0.135842852,22.9151426 C0.346395763,23.3223574 0.763526889,23.5753242 1.22443267,23.5753242 L6.8460311,23.5753242 C6.96421207,24.4548809 7.3748247,25.2659883 8.02471404,25.890416 C8.76946613,26.605916 9.74983821,27 10.7853261,27 C12.3398563,27 13.7605187,26.0899629 14.4046315,24.6816387 C14.4955726,24.4828301 14.4073343,24.2483203 14.2075396,24.1578281 C14.0076919,24.0672832 13.7720719,24.1551914 13.6811308,24.354 C13.1657452,25.4808281 12.029088,26.2089844 10.7853261,26.2089844 C9.20784863,26.2089844 7.90287635,25.0812598 7.65045663,23.5753242 L20.3462195,23.5753242 C20.8071253,23.5753242 21.2242034,23.3223574 21.4348093,22.9151426 C21.6447263,22.5090879 21.609378,22.026041 21.3424904,21.6544219 Z M10.7853261,0.791015625 C11.7496404,0.791015625 12.5341924,1.57169531 12.5341924,2.53125 C12.5341924,2.91821484 12.4071082,3.28698633 12.173608,3.58904883 C11.7209696,3.51938672 11.257361,3.48305273 10.7853261,3.48305273 C10.3131322,3.48305273 9.84936461,3.51938672 9.39656721,3.58910156 C9.16338503,3.28656445 9.03645972,2.9178457 9.03645972,2.53125 C9.03645972,1.57169531 9.82101177,0.791015625 10.7853261,0.791015625 L10.7853261,0.791015625 Z M20.3462195,22.7843325 L7.21297506,22.7843325 C7.21228612,22.7843325 7.21159717,22.7843325 7.21085523,22.7843325 C7.20884138,22.7843325 7.20682753,22.7843325 7.20486668,22.7843325 L1.22443267,22.7843325 C0.882396805,22.7876836 0.675182639,22.3869023 0.874977372,22.1143184 L1.88285436,20.7106875 C2.3233037,20.0973867 2.55606191,19.375084 2.55606191,18.6219316 L2.55606191,12.4381934 C2.55606191,7.9364707 6.24770682,4.27406836 10.7853261,4.27406836 C15.3229454,4.27406836 19.0145903,7.9364707 19.0145903,12.4381934 L19.0145903,18.6218789 C19.0145903,19.3750312 19.2474015,20.097334 19.6877978,20.7106348 L20.6957278,22.1142656 C20.8957875,22.3872715 20.6865065,22.7878945 20.3462195,22.7843325 Z M10.7853261,6.65782031 C10.3161529,6.65782031 9.86452145,6.85451953 9.54622777,7.19750391 C9.22793409,7.54048828 9.0668264,8.00412891 9.10413555,8.46945703 L9.42682789,12.4941973 C9.44426356,12.7119375 9.63552595,12.874043 9.8546642,12.8570098 C10.0734845,12.8396074 10.236712,12.6490254 10.2192233,12.4312852 L9.896531,8.40654492 C9.87655153,8.15695313 9.95949019,7.91811914 10.1302431,7.73412891 C10.3009961,7.55019141 10.5336483,7.44883594 10.7853261,7.44883594 C11.0370039,7.44883594 11.2696561,7.55019141 11.440409,7.73412891 C11.611109,7.91811914 11.6941006,8.15695313 11.6741212,8.40654492 L11.0431514,16.2758848 C11.0324992,16.4087227 10.9192469,16.5127148 10.7853261,16.5127148 C10.6514053,16.5127148 10.538153,16.4086699 10.5275008,16.2758848 L10.3324757,13.8436699 C10.31504,13.6259297 10.1234067,13.4638242 9.90463938,13.4808574 C9.6858191,13.4982598 9.52259158,13.6888418 9.54008024,13.906582 L9.73510534,16.3387969 C9.77850902,16.8799043 10.2397858,17.3037305 10.7853261,17.3037305 C11.3308134,17.3037305 11.7921432,16.8799043 11.8355468,16.3387969 L12.4665166,8.46945703 C12.5038788,8.00412891 12.3427181,7.54048828 12.0244244,7.19750391 C11.7061307,6.85451953 11.2544992,6.65782031 10.7853261,6.65782031 Z M10.7853261,18.0853066 C10.0723716,18.0853066 9.49233089,18.6624844 9.49233089,19.3719199 C9.49233089,20.0813555 10.0723716,20.6585332 10.7853261,20.6585332 C11.4982806,20.6585332 12.0783213,20.0813555 12.0783213,19.3719199 C12.0783213,18.6624844 11.4982806,18.0853066 10.7853261,18.0853066 Z M10.7853261,19.8675703 C10.5107011,19.8675703 10.2872701,19.6452422 10.2872701,19.3719727 C10.2872701,19.0987031 10.5107011,18.876375 10.7853261,18.876375 C11.0599511,18.876375 11.283382,19.0987031 11.283382,19.3719727 C11.283382,19.6452422 11.0599511,19.8675703 10.7853261,19.8675703 Z" id="Shape"></path>
            </g>
        </g>
    </g>
</svg>