<?xml version="1.0" encoding="UTF-8"?>
<svg width="16px" height="16px" viewBox="0 0 16 16" version="1.1" xmlns="http://www.w3.org/2000/svg" xmlns:xlink="http://www.w3.org/1999/xlink">
    <!-- Generator: Sketch 55.2 (78181) - https://sketchapp.com -->
    <title>download-document-icon-white</title>
    <desc>Created with Sketch.</desc>
    <g id="Welcome" stroke="none" stroke-width="1" fill="none" fill-rule="evenodd">
        <g id="home" transform="translate(-259.000000, -578.000000)" fill="#FFFFFF" fill-rule="nonzero">
            <g id="download-document-icon-white" transform="translate(259.000000, 578.000000)">
                <path d="M8.32,8.96 C8.673472,8.96 8.96,8.67849881 8.96,8.33122807 L8.96,0.62877193 C8.96,0.281501193 8.673472,0 8.32,0 C7.966528,0 7.68,0.281501193 7.68,0.62877193 L7.68,8.33122807 C7.68,8.67849881 7.966528,8.96 8.32,8.96 Z" id="Path"></path>
                <path d="M6.67764137,11.6020582 C6.67867428,11.6031329 6.67967681,11.6042077 6.68070972,11.6052824 C7.03618265,11.9751468 7.50305796,12.16 7.96993327,12.16 C8.43644403,12.16 8.90289402,11.9753365 9.25766822,11.6061675 L12.6211877,8.12012963 C12.8589392,7.87373246 12.8596987,7.47345956 12.6228889,7.2260825 C12.3860791,6.97873704 12.0013809,6.97791519 11.7636293,7.22431236 L8.39925927,10.7112353 C8.28448474,10.8306249 8.13191786,10.8964045 7.96962948,10.8964045 C7.8079183,10.8964045 7.6558375,10.8311306 7.54121487,10.7125312 L4.24030801,7.22839 C4.00474377,6.97971694 3.62001518,6.97687207 3.38104842,7.22197324 C3.14208166,7.46707441 3.13931711,7.86734732 3.37488134,8.11602037 L6.67764137,11.6020582 Z" id="Path"></path>
                <path d="M15.375,12.8 C15.0298125,12.8 14.75,13.086528 14.75,13.44 C14.75,14.145792 14.18925,14.72 13.5,14.72 L2.5,14.72 C1.81075,14.72 1.25,14.145792 1.25,13.44 C1.25,13.086528 0.9701875,12.8 0.625,12.8 C0.2798125,12.8 0,13.086528 0,13.44 C0,14.851584 1.1215,16 2.5,16 L13.5,16 C14.8785,16 16,14.851584 16,13.44 C16,13.086528 15.7201875,12.8 15.375,12.8 Z" id="Path"></path>
            </g>
        </g>
    </g>
</svg>