<?xml version="1.0" encoding="UTF-8"?>
<svg width="27px" height="30px" viewBox="0 0 27 30" version="1.1" xmlns="http://www.w3.org/2000/svg" xmlns:xlink="http://www.w3.org/1999/xlink">
    <!-- Generator: Sketch 55.2 (78181) - https://sketchapp.com -->
    <title>farms-icon-yellow</title>
    <desc>Created with Sketch.</desc>
    <g id="Welcome" stroke="none" stroke-width="1" fill="none" fill-rule="evenodd">
        <g id="home" transform="translate(-137.000000, -196.000000)" fill="#D1A914" fill-rule="nonzero">
            <g id="farms-icon-yellow" transform="translate(137.000000, 196.000000)">
                <path d="M23.0649701,23.1997669 L21.9855487,12.0591384 C21.8612141,10.7755672 20.8249397,9.80769231 19.5750532,9.80769231 L15.2999982,9.80769231 C15.0459356,9.80769231 14.8400119,10.02017 14.8400119,10.2824508 C14.8400119,10.5447316 15.0458783,10.7572093 15.2999982,10.7572093 L19.5750532,10.7572093 C20.3503225,10.7572093 20.9930525,11.357512 21.0702237,12.1537111 L22.1496451,23.2942804 C22.1923905,23.7359355 22.057097,24.1602987 21.7686087,24.48926 C21.480063,24.8182807 21.0843956,24.9994315 20.6545319,24.9994315 L2.4224485,24.9994315 C1.99252746,24.9994315 1.59691747,24.8182807 1.30842915,24.4892008 C1.01994082,24.1602394 0.884647374,23.7358763 0.927392761,23.2942212 L1.39816577,18.435186 C1.42341137,18.1743264 1.23900376,17.9416551 0.986203527,17.9155395 C0.733173791,17.8897201 0.508028965,18.0797537 0.482725991,18.3407318 L0.0119529788,23.1997669 C-0.0559806283,23.9013933 0.167901918,24.6035527 0.626281637,25.1263378 C1.08466136,25.6491228 1.73926822,25.9488893 2.4224485,25.9488893 L9.87179311,25.9488893 L9.60797662,29.488881 C9.58772276,29.7606961 9.8026546,30 10.0665858,30 L13.0103946,30 C13.2742685,30 13.4892577,29.7605777 13.4690038,29.488881 L13.2051873,25.9488893 L20.6544746,25.9488893 C21.3375975,25.9488893 21.9922617,25.6491228 22.4506414,25.1263378 C22.9090212,24.6035527 23.1329037,23.9013341 23.0649701,23.1997669 Z M10.5632356,29.0505422 L10.7944049,25.9488893 L12.2825755,25.9488893 L12.5137449,29.0505422 L10.5632356,29.0505422 Z" id="Shape"></path>
                <path d="M13.3810538,10.3846154 L3.43738044,10.3846154 C2.17375628,10.3846154 1.12609212,11.3320308 1.00033298,12.5884692 L0.579260275,16.7966537 C0.553737201,17.0519991 0.740171651,17.2797521 0.995750428,17.3053157 C1.01147032,17.3068808 1.0270742,17.3076923 1.04256206,17.3076923 C1.27859249,17.3076923 1.48074683,17.1288056 1.50476172,16.8891693 L1.92583443,12.6809848 C2.00385382,11.9017321 2.65364807,11.314061 3.43743845,11.314061 L13.3811118,11.314061 C13.6379668,11.314061 13.8461538,11.1060748 13.8461538,10.8493382 C13.8461538,10.5926016 13.6379088,10.3846154 13.3810538,10.3846154 Z" id="Path"></path>
                <path d="M20.8848489,19.8773628 L17.248369,19.8773628 L17.0818297,15.8919363 L20.3929398,15.8919363 C20.6476671,15.8919363 20.8541297,15.68612 20.8541297,15.4320618 C20.8541297,15.178061 20.6477247,14.9721872 20.3929398,14.9721872 L17.043402,14.9721872 L16.9183394,11.9792454 C16.9077546,11.7254741 16.6934108,11.5278605 16.4383384,11.5389315 C16.1838411,11.5494862 15.9861226,11.7637922 15.996765,12.0175635 L16.1202168,14.9721872 L11.9995364,14.9721872 L11.9995364,11.9984618 C11.9995364,11.744461 11.7931313,11.5384615 11.5383465,11.5384615 C11.2836192,11.5384615 11.0771566,11.7444037 11.0771566,11.9984618 L11.0771566,14.9721872 L6.9564186,14.9721872 L7.07987046,12.0175635 C7.09051287,11.7637922 6.8927943,11.5494862 6.63829708,11.5389315 C6.38282191,11.5275163 6.16888087,11.7254741 6.158296,11.9792454 L6.03329092,14.9721872 L2.68386822,14.9721872 C2.42914089,14.9721872 2.2226783,15.1780036 2.2226783,15.4320618 C2.2226783,15.6860626 2.42908337,15.8919363 2.68386822,15.8919363 L5.99497828,15.8919363 L5.82843907,19.8773628 L2.19195915,19.8773628 C1.93723183,19.8773628 1.73076923,20.0831792 1.73076923,20.3372374 C1.73076923,20.5912382 1.9371743,20.7971119 2.19195915,20.7971119 L5.79001137,20.7971119 L5.66655951,23.7517356 C5.65591711,24.005507 5.85363567,24.219813 6.10813289,24.2303677 C6.11463339,24.2307692 6.12124893,24.2307692 6.1276919,24.2307692 C6.37350262,24.2307692 6.57772168,24.0373431 6.58807645,23.7900537 L6.71313905,20.7971119 L11.0772716,20.7971119 L11.0772716,23.7708373 C11.0772716,24.0248381 11.2836767,24.2307692 11.5384615,24.2307692 C11.7931889,24.2307692 11.9996515,24.0248955 11.9996515,23.7708373 L11.9996515,20.7971119 L16.363784,20.7971119 L16.4888466,23.7900537 C16.4992014,24.0372858 16.7033629,24.2307692 16.9492312,24.2307692 C16.9556741,24.2307692 16.9622897,24.2307692 16.9687902,24.2303677 C17.2232874,24.219813 17.421006,24.005507 17.4103636,23.7517356 L17.2869117,20.7971119 L20.8849639,20.7971119 C21.1396913,20.7971119 21.3461538,20.5912955 21.3461538,20.3372374 C21.3461538,20.0831792 21.1395762,19.8773628 20.8848489,19.8773628 Z M11.0772141,19.8773628 L6.75156675,19.8773628 L6.91810596,15.8919363 L11.0772716,15.8919363 L11.0772716,19.8773628 L11.0772141,19.8773628 Z M11.9995364,19.8773628 L11.9995364,15.8919363 L16.1586445,15.8919363 L16.3251837,19.8773628 L11.9995364,19.8773628 Z" id="Shape"></path>
                <path d="M21.3461538,2.30769231 C19.7556156,2.30769231 18.4615385,3.60176945 18.4615385,5.19230769 C18.4615385,6.78284594 19.7556156,8.07692308 21.3461538,8.07692308 C22.9366921,8.07692308 24.2307692,6.78284594 24.2307692,5.19230769 C24.2307692,3.60176945 22.9366921,2.30769231 21.3461538,2.30769231 Z M21.3461538,7.16600685 C20.2578041,7.16600685 19.3724547,6.28065742 19.3724547,5.19230769 C19.3724547,4.10395797 20.2578041,3.21860853 21.3461538,3.21860853 C22.4345036,3.21860853 23.319853,4.10395797 23.319853,5.19230769 C23.319853,6.28065742 22.4344468,7.16600685 21.3461538,7.16600685 Z" id="Shape"></path>
                <path d="M21.3461538,0 C21.0275041,0 20.7692308,0.252593045 20.7692308,0.564391984 L20.7692308,1.16637725 C20.7692308,1.47810579 21.0274321,1.73076923 21.3461538,1.73076923 C21.6648756,1.73076923 21.9230769,1.47817619 21.9230769,1.16637725 L21.9230769,0.564391984 C21.923005,0.252593045 21.6648036,0 21.3461538,0 Z" id="Path"></path>
                <path d="M20.131237,1.13933604 L19.8883285,0.7744639 C19.7625569,0.585548334 19.4839165,0.520851897 19.2662304,0.629894711 C19.0484308,0.738986799 18.9737858,0.980576006 19.0995575,1.16949157 L19.342466,1.53436371 C19.4665334,1.72066776 19.7494343,1.78669459 19.964564,1.6789329 C20.1823637,1.56984081 20.2569518,1.3282516 20.131237,1.13933604 Z" id="Path"></path>
                <path d="M18.2641956,2.61206028 L17.899689,2.36888113 C17.7110119,2.24296937 17.4696155,2.31758375 17.3606327,2.53573979 C17.25165,2.75378208 17.3163308,3.03261917 17.5050571,3.15853092 L17.8695637,3.40171007 C18.0559764,3.52608632 18.3011138,3.44987957 18.4086199,3.23485141 C18.5175535,3.01680912 18.4529218,2.73797203 18.2641956,2.61206028 Z" id="Path"></path>
                <path d="M17.8971465,4.61538462 L17.2951612,4.61538462 C16.9834327,4.61538462 16.7307692,4.87358594 16.7307692,5.19230769 C16.7307692,5.51095748 16.9833623,5.76923077 17.2951612,5.76923077 L17.8971465,5.76923077 C18.208875,5.76923077 18.4615385,5.51102945 18.4615385,5.19230769 C18.4614681,4.8736579 18.208875,4.61538462 17.8971465,4.61538462 Z" id="Path"></path>
                <path d="M18.4086199,6.57415081 C18.2995879,6.35603974 18.0582407,6.28147817 17.8695637,6.40728304 L17.5050571,6.65047546 C17.3163308,6.77639408 17.25165,7.05524639 17.3606327,7.27330058 C17.4681388,7.48834047 17.7132762,7.56455138 17.899689,7.44016835 L18.2641956,7.19697593 C18.4529218,7.07105731 18.5175535,6.792205 18.4086199,6.57415081 Z" id="Path"></path>
                <path d="M19.9642674,8.129853 C19.746241,8.02091816 19.4672946,8.08550131 19.3413591,8.27427903 L19.0981342,8.63878986 C18.9261817,8.89638408 19.1467678,9.23076923 19.4926068,9.23076923 C19.6502252,9.23076923 19.8034068,9.15998374 19.8879326,9.03342637 L20.1311575,8.66891554 C20.257036,8.48018704 20.1823507,8.23883706 19.9642674,8.129853 Z" id="Path"></path>
                <path d="M21.3461538,8.07692308 C21.0275041,8.07692308 20.7692308,8.32951612 20.7692308,8.64131506 L20.7692308,9.24330032 C20.7692308,9.55502886 21.0274321,9.80769231 21.3461538,9.80769231 C21.6648756,9.80769231 21.9230769,9.55509926 21.9230769,9.24330032 L21.9230769,8.64131506 C21.923005,8.32951612 21.6648036,8.07692308 21.3461538,8.07692308 Z" id="Path"></path>
                <path d="M24.1704049,8.64043415 L23.9272951,8.2748597 C23.8014487,8.08550556 23.5226428,8.02077459 23.3048273,8.12999267 C23.0868983,8.23930951 23.0122089,8.48139642 23.1380553,8.67070119 C23.2176898,8.79053495 23.2957328,8.9114056 23.3771293,9.03039998 C23.5462887,9.27742443 23.961684,9.30606208 24.1532388,9.06012389 C24.2500393,8.93584635 24.2566898,8.77034047 24.1704049,8.64043415 Z" id="Path"></path>
                <path d="M25.7643721,6.65014955 L25.3997983,6.40723775 C25.2110371,6.28152124 24.9696454,6.35605357 24.8606425,6.57391296 C24.7516396,6.79171555 24.8163324,7.07024608 25.0050935,7.1960194 L25.3696674,7.4389312 C25.4318,7.48034437 25.499693,7.5 25.5666505,7.5 C25.750439,7.5 25.9139926,7.3480381 25.9528378,7.14074504 C25.988729,6.94947188 25.9111863,6.74797324 25.7643721,6.65014955 Z" id="Path"></path>
                <path d="M25.9740696,4.61538462 L25.3720843,4.61538462 C25.0603558,4.61538462 24.8076923,4.87358594 24.8076923,5.19230769 C24.8076923,5.51095748 25.0602854,5.76923077 25.3720843,5.76923077 L25.9740696,5.76923077 C26.2857981,5.76923077 26.5384615,5.51102945 26.5384615,5.19230769 C26.5384615,4.8736579 26.2857277,4.61538462 25.9740696,4.61538462 Z" id="Path"></path>
                <path d="M25.9085934,2.53545143 C25.799601,2.31759204 25.5581341,2.2430597 25.3694896,2.36877621 C25.2553774,2.44478556 25.141216,2.52090853 25.0271038,2.59691788 C24.8423976,2.72002122 24.7496999,2.9717951 24.8467298,3.20368611 C24.9121055,3.359795 25.0523581,3.46153846 25.2026534,3.46153846 C25.2696045,3.46153846 25.3375401,3.44188283 25.3996176,3.40046966 L25.7641563,3.15755786 C25.9528992,3.03178454 26.0175858,2.75325401 25.9085934,2.53545143 Z" id="Path"></path>
                <path d="M24.0030103,0.629925859 C23.785277,0.520836858 23.5067056,0.585531464 23.3809395,0.774490958 L23.1380416,1.13935277 C23.0122187,1.32826299 23.0869171,1.56984536 23.3047073,1.67893436 C23.5198275,1.78669301 23.8027161,1.72066805 23.9267781,1.53436926 L24.169676,1.16950745 C24.2954421,0.980547959 24.2208004,0.738965587 24.0030103,0.629925859 Z" id="Path"></path>
                <path d="M5.77523178,5.42544784 C5.62797453,5.25301444 5.47567886,5.07461827 5.45188915,4.93491923 C5.42783973,4.79418582 5.54273674,4.56668812 5.77523178,4.2942263 C5.93786403,4.10366123 5.93786403,3.79487523 5.77523178,3.604371 C5.61254758,3.41392762 5.34893894,3.41392762 5.18630669,3.604371 C4.11457522,4.85983707 4.81174867,5.67649238 5.18630669,6.1152423 C5.33351199,6.28761486 5.48580766,6.46588934 5.50959737,6.60571008 C5.53364679,6.74644348 5.41874978,6.97394118 5.18625474,7.246403 C5.03468626,7.42400819 5.02455746,7.71733968 5.16417914,7.90826982 C5.31985109,8.12134737 5.60584699,8.13455063 5.77523178,7.93631915 C6.84696324,6.68085307 6.1497898,5.86419776 5.77523178,5.42544784 Z" id="Path"></path>
                <path d="M9.23677024,5.42531509 C9.08951299,5.25289334 8.93721732,5.07450923 8.91342761,4.93481963 C8.88937819,4.79409574 9.0042752,4.56661341 9.23677024,4.29417002 C9.39940249,4.10361782 9.39940249,3.7948527 9.23677024,3.60436135 C9.07408604,3.41393083 8.8104774,3.41393083 8.64784515,3.60436135 C7.57611368,4.85974255 8.27328713,5.67634266 8.64784515,6.11506292 C8.79510239,6.28748467 8.94739807,6.46580794 8.97118777,6.60555838 C8.99523719,6.74628227 8.88034018,6.9737646 8.64784515,7.24620799 C8.4852129,7.43676019 8.4852129,7.74552531 8.64784515,7.93601667 C8.80829581,8.12389188 9.07631958,8.12389188 9.23677024,7.93601667 C10.3085017,6.68063546 9.61132826,5.86403535 9.23677024,5.42531509 Z" id="Path"></path>
                <path d="M12.6983337,5.42544784 C12.5510732,5.25301444 12.3987743,5.07461827 12.3749841,4.93491923 C12.3509341,4.79418582 12.4658336,4.56668812 12.6983337,4.2942263 C12.8609694,4.10366123 12.8609694,3.79487523 12.6983337,3.604371 C12.535646,3.41392762 12.2720316,3.41392762 12.1093959,3.604371 C11.0376414,4.85983707 11.7348298,5.67649238 12.1093959,6.1152423 C12.2566044,6.28761486 12.4089033,6.46588934 12.4326935,6.60571008 C12.4567435,6.74644348 12.341844,6.97394118 12.109344,7.246403 C11.9577722,7.42400819 11.9476432,7.71733968 12.0872679,7.90826982 C12.2429432,8.12134737 12.5289452,8.13455063 12.6983337,7.93631915 C13.7700363,6.68085307 13.0728478,5.86419776 12.6983337,5.42544784 Z" id="Path"></path>
            </g>
        </g>
    </g>
</svg>