<?xml version="1.0" encoding="UTF-8"?>
<svg width="19px" height="19px" viewBox="0 0 19 19" version="1.1" xmlns="http://www.w3.org/2000/svg" xmlns:xlink="http://www.w3.org/1999/xlink">
    <!-- Generator: Sketch 55.2 (78181) - https://sketchapp.com -->
    <title>home-icon-dark</title>
    <desc>Created with Sketch.</desc>
    <g id="Welcome" stroke="none" stroke-width="1" fill="none" fill-rule="evenodd">
        <g id="home" transform="translate(-39.000000, -81.000000)" fill="#9BBDD1" fill-rule="nonzero">
            <g id="home-icon-dark" transform="translate(39.000000, 81.000000)">
                <path d="M18.4516977,8.26408384 C18.4512637,8.263649 18.4508297,8.26321411 18.4503956,8.26277923 L10.7150079,0.512573242 C10.3852915,0.182067871 9.9469234,0 9.48063288,0 C9.0143424,0 8.57597433,0.181922922 8.24611321,0.512428293 L0.514776437,8.25872039 C0.512172251,8.26132966 0.509568066,8.26408384 0.506963918,8.26669312 C-0.170119415,8.94901277 -0.168962008,10.0560608 0.510291474,10.7366409 C0.820621326,11.0477219 1.23048821,11.2279053 1.66871162,11.2467499 C1.68650673,11.2484894 1.70444655,11.2493591 1.72253103,11.2493591 L2.03083544,11.2493591 L2.03083544,16.9530411 C2.03083544,18.0816879 2.94735744,19 4.07409355,19 L7.10042458,19 C7.40713755,19 7.65598014,18.7508163 7.65598014,18.4433594 L7.65598014,13.9716797 C7.65598014,13.4566422 8.07409355,13.0377121 8.5881271,13.0377121 L10.3731387,13.0377121 C10.8871723,13.0377121 11.3052857,13.4566422 11.3052857,13.9716797 L11.3052857,18.4433594 C11.3052857,18.7508163 11.5539836,19 11.8608413,19 L14.8871723,19 C16.0139084,19 16.9304304,18.0816879 16.9304304,16.9530411 L16.9304304,11.2493591 L17.21631,11.2493591 C17.6824558,11.2493591 18.1208239,11.0674362 18.4508297,10.7369308 C19.1308065,10.0551911 19.1310958,8.94625854 18.4516977,8.26408384 L18.4516977,8.26408384 Z" id="Path"></path>
            </g>
        </g>
    </g>
</svg>