<?xml version="1.0" encoding="UTF-8"?>
<svg width="17px" height="15px" viewBox="0 0 17 15" version="1.1" xmlns="http://www.w3.org/2000/svg" xmlns:xlink="http://www.w3.org/1999/xlink">
    <!-- Generator: Sketch 55.2 (78181) - https://sketchapp.com -->
    <title>left-arrow-icon</title>
    <desc>Created with Sketch.</desc>
    <g id="Welcome" stroke="none" stroke-width="1" fill="none" fill-rule="evenodd" opacity="0.454194568">
        <g id="home" transform="translate(-329.000000, -160.000000)" fill="#FFFFFF" fill-rule="nonzero">
            <g id="hide-side-panel" transform="translate(320.000000, 150.000000)">
                <g id="left-arrow-icon" transform="translate(17.323232, 17.888889) scale(-1, 1) translate(-17.323232, -17.888889) translate(8.767677, 10.888889)">
                    <path d="M10.0489534,0.188809091 C9.77565909,-0.0714875 9.3422875,-0.0612261364 9.08199091,0.212410227 C8.82135227,0.486046591 8.83229773,0.919076136 9.10559205,1.17971477 L14.3532534,6.15681818 L0.684090909,6.15681818 C0.306472727,6.15681818 0,6.46329091 0,6.84090909 C0,7.21852727 0.306472727,7.525 0.684090909,7.525 L14.3313625,7.525 L9.10559205,12.5024455 C8.83195568,12.7630841 8.82135227,13.1961136 9.08199091,13.46975 C9.21641477,13.6106727 9.39667273,13.6818182 9.57727273,13.6818182 C9.74692727,13.6818182 9.91658182,13.6192239 10.0489534,13.4930091 L16.0173045,7.80821364 C16.2758909,7.54996932 16.4181818,7.20655568 16.4181818,6.84090909 C16.4181818,6.4752625 16.2758909,6.13184886 16.005333,5.861975 L10.0489534,0.188809091 Z" id="Path"></path>
                </g>
            </g>
        </g>
    </g>
</svg>