<?xml version="1.0" encoding="UTF-8"?>
<svg width="16px" height="26px" viewBox="0 0 16 26" version="1.1" xmlns="http://www.w3.org/2000/svg" xmlns:xlink="http://www.w3.org/1999/xlink">
    <!-- Generator: Sketch 55.2 (78181) - https://sketchapp.com -->
    <title>mw-icon-yellow</title>
    <desc>Created with Sketch.</desc>
    <g id="Welcome" stroke="none" stroke-width="1" fill="none" fill-rule="evenodd">
        <g id="home" transform="translate(-51.000000, -197.000000)" fill="#D1A914" fill-rule="nonzero">
            <g id="mw-icon-yellow" transform="translate(51.000000, 197.000000)">
                <path d="M15.9487647,8.92668359 C15.8547918,8.75336719 15.71386,8.66668359 15.5259692,8.66668359 L9.9826681,8.66668359 L15.4790102,0.65 C15.5729832,0.52 15.5729832,0.346683594 15.4790102,0.216683594 C15.3850373,0.0866835938 15.2441055,0 15.0562147,0 L7.53986772,0 C7.35197694,0 7.21104509,0.0866835938 7.11707217,0.216683594 L0.0704796877,13.2166836 C-0.0234932292,13.3466836 -0.0234932292,13.52 0.0704796877,13.65 C0.164452605,13.78 0.352343387,13.8666836 0.493275237,13.8666836 L5.33191706,13.8666836 L0.0704796877,25.4366836 C-0.0234932292,25.61 0.0704796877,25.8266836 0.25837047,25.9566836 C0.305329403,26 0.39930232,26 0.493275237,26 C0.634207087,26 0.775138936,25.9566836 0.869111853,25.87 L15.9018608,9.40331641 C15.9957787,9.27331641 16.0427376,9.1 15.9487647,8.92668359 Z M2.13744345,23.0966836 L6.45937186,13.5633672 C6.50633079,13.4333672 6.50633079,13.3033672 6.41241293,13.1733672 C6.31844001,13.0866836 6.17750816,13.0000508 6.03657631,13.0000508 L1.24489342,13.0000508 L7.82173142,0.866683594 L14.2106236,0.866683594 L8.66732252,8.88331641 C8.5733496,9.01331641 8.5733496,9.18663281 8.66732252,9.31663281 C8.76129544,9.44663281 8.90222729,9.53331641 9.09011807,9.53331641 L14.5395013,9.53331641 L2.13744345,23.0966836 Z" id="Shape"></path>
            </g>
        </g>
    </g>
</svg>