<?xml version="1.0" encoding="UTF-8"?>
<svg width="22px" height="23px" viewBox="0 0 22 23" version="1.1" xmlns="http://www.w3.org/2000/svg" xmlns:xlink="http://www.w3.org/1999/xlink">
    <!-- Generator: Sketch 55.2 (78181) - https://sketchapp.com -->
    <title>notification-icon</title>
    <desc>Created with Sketch.</desc>
    <g id="Welcome" stroke="none" stroke-width="1" fill="none" fill-rule="evenodd">
        <g id="home" transform="translate(-1147.000000, -19.000000)" fill="#9BBDD1" fill-rule="nonzero">
            <g id="notification-icon" transform="translate(1147.000000, 19.000000)">
                <path d="M19.1588288,15.6721191 L19.1574249,15.6721191 C18.4960556,15.6717682 18.1226425,15.328537 17.9089127,14.5252075 C17.690445,13.7036286 17.683075,12.512146 17.675354,11.2506485 C17.6660538,9.72225188 17.6555252,7.98995208 17.2756195,6.44067383 C17.2306976,6.25747681 17.0455704,6.14534758 16.8623734,6.19026946 C16.6793518,6.23519133 16.5672226,6.42014314 16.611969,6.60334016 C16.9729233,8.07453157 16.9831009,9.76419067 16.9922257,11.2548599 C17.0002975,12.5611038 17.0076676,13.7948761 17.2485962,14.7006836 C17.3533554,15.0946274 17.5035629,15.4183807 17.6976395,15.6721191 L3.46389771,15.6721191 C3.65797427,15.4183807 3.80818179,15.0946274 3.91294099,14.7006836 C4.15386963,13.7948761 4.16141511,12.5611038 4.16931152,11.2548599 C4.18141936,9.26057436 4.19528198,7.00026702 5.01124575,5.2704239 C5.9296875,3.32316587 7.75148012,2.37647248 10.5808563,2.37647248 C12.1346969,2.37647248 13.4061966,2.66846467 14.359909,3.24455259 C15.1869278,3.74395752 15.794075,4.45375823 16.216095,5.41448975 C16.2919006,5.5871582 16.4935226,5.66577148 16.6661911,5.58979036 C16.8388595,5.51398469 16.9174728,5.31253816 16.8416672,5.13969419 C16.3677063,4.06086733 15.6515885,3.22647859 14.7131424,2.65969085 C14.1140671,2.2978592 13.4105835,2.03692627 12.6093597,1.87794497 C12.5286408,0.829124439 11.6500321,0 10.5808563,0 C9.51168059,0 8.63289641,0.829299949 8.55270386,1.8782959 C7.78833008,2.02973176 7.11257171,2.27381899 6.53262329,2.60985564 C5.59944155,3.15067292 4.87963867,3.9478607 4.39321899,4.97895815 C3.51303101,6.84514617 3.49864195,9.18564607 3.48618318,11.2506485 C3.47846223,12.512146 3.47126772,13.7036286 3.25262451,14.5252075 C3.03889468,15.328537 2.66548159,15.6717682 2.00411223,15.6721191 L2.00270842,15.6721191 C0.8984375,15.6721191 -5.68434189e-14,16.5705566 -5.68434189e-14,17.6750031 C-5.68434189e-14,18.779274 0.8984375,19.6777115 2.00270842,19.6777115 L4.16474917,19.6777115 C4.35338591,19.6777115 4.50640105,19.5246964 4.50640105,19.3360596 C4.50640105,19.1474228 4.35338591,18.9945832 4.16474917,18.9945832 L2.00270842,18.9945832 C1.27518464,18.9945832 0.683128346,18.4025269 0.683128346,17.6750031 C0.683128346,16.9474792 1.27500913,16.3555985 2.00253296,16.355423 L2.00270842,16.355423 L2.00393677,16.355423 L19.1574249,16.355423 L19.1586532,16.355423 L19.1590042,16.355423 C19.8863525,16.3555985 20.4782333,16.9474792 20.4782333,17.6750031 C20.4782333,18.4025269 19.8861771,18.9945832 19.1586532,18.9945832 L5.53118132,18.9945832 C5.34254458,18.9945832 5.18970491,19.1474228 5.18970491,19.3360596 C5.18970491,19.5246964 5.34254458,19.6777115 5.53118132,19.6777115 L6.93341064,19.6777115 C7.10625457,21.5384598 8.67571257,23 10.5808563,23 C12.4858246,23 14.0552826,21.5384598 14.2281265,19.6777115 L19.1588288,19.6777115 C20.2630997,19.6777115 21.1615372,18.779274 21.1615372,17.6750031 C21.1615372,16.5705566 20.2630997,15.6721191 19.1588288,15.6721191 Z M10.5808563,0.683128346 C11.2350311,0.683128346 11.7821655,1.15042114 11.9062271,1.76862336 C11.4868393,1.71913909 11.0453415,1.69334409 10.5808563,1.69334409 C10.1163712,1.69334409 9.67487336,1.71896362 9.25566099,1.7684479 C9.37972258,1.15024568 9.9266815,0.683128346 10.5808563,0.683128346 L10.5808563,0.683128346 Z M10.5808563,22.3168717 C9.05281069,22.3168717 7.79026033,21.1608353 7.62022398,19.6777115 L13.5413132,19.6777115 C13.3712769,21.1608353 12.1087265,22.3168717 10.5808563,22.3168717 L10.5808563,22.3168717 Z" id="Shape"></path>
                <path d="M16.0655365,2.14379119 C16.0716782,2.14712524 16.6798782,2.49421694 17.2782516,3.30052947 C18.0798263,4.38040925 18.4860535,5.72946931 18.4860535,7.31033325 C18.4860535,7.49897004 18.6390686,7.65198518 18.8277054,7.65198518 C19.0163421,7.65198518 19.1693573,7.49897004 19.1693573,7.31033325 C19.1693573,5.13407896 18.4262161,3.68955991 17.8027497,2.86113738 C17.1176911,1.95076751 16.4261398,1.56243896 16.3970108,1.54629517 C16.2322388,1.45539858 16.025528,1.5150604 15.9339294,1.67930601 C15.8423309,1.84372712 15.9014664,2.05149079 16.0655365,2.14379119 Z" id="Path"></path>
                <path d="M18.6427536,2.26908113 C18.6976776,2.30505371 19.989006,3.17173005 19.989006,5.35219573 C19.989006,5.54083252 20.1420212,5.69367219 20.330658,5.69367219 C20.5192948,5.69367219 20.6721344,5.54083252 20.6721344,5.35219573 C20.6721344,2.78041838 19.0789871,1.73686216 19.0110779,1.69369507 C18.852623,1.59279631 18.6431046,1.63947297 18.5413284,1.7975769 C18.4395523,1.95550537 18.4853516,2.16642759 18.6427536,2.26908113 Z" id="Path"></path>
                <path d="M2.33365632,7.65198518 C2.52229311,7.65198518 2.67530825,7.49897004 2.67530825,7.31033325 C2.67530825,5.72946931 3.08171079,4.38040925 3.88311004,3.30052947 C4.47779848,2.49930574 5.08231355,2.15151213 5.09564973,2.14379119 C5.2600708,2.05236816 5.31973267,1.84495542 5.22866057,1.68018342 C5.13723755,1.5150604 4.92947388,1.45522307 4.7643509,1.54629517 C4.73522185,1.56243896 4.04367065,1.95076751 3.35861206,2.86113738 C2.73532104,3.68955991 1.99217986,5.13407896 1.99217986,7.31033325 C1.99217986,7.49897004 2.14501953,7.65198518 2.33365632,7.65198518 Z" id="Path"></path>
                <path d="M0.830879223,5.69367219 C1.01951597,5.69367219 1.17235564,5.54083252 1.17235564,5.35219573 C1.17235564,3.17348479 2.46175383,2.30628205 2.51860808,2.26925659 C2.67653655,2.16765593 2.72286223,1.95726011 2.62196352,1.79862974 C2.52071379,1.63947297 2.30961607,1.59262085 2.15028384,1.69387053 C2.08255005,1.73703767 0.489227295,2.78041838 0.489227295,5.35219573 C0.489227295,5.54083252 0.642242432,5.69367219 0.830879223,5.69367219 Z" id="Path"></path>
            </g>
        </g>
    </g>
</svg>