<?xml version="1.0" encoding="UTF-8"?>
<svg width="14px" height="14px" viewBox="0 0 14 14" version="1.1" xmlns="http://www.w3.org/2000/svg" xmlns:xlink="http://www.w3.org/1999/xlink">
    <!-- Generator: Sketch 55.2 (78181) - https://sketchapp.com -->
    <title>search-icon-white</title>
    <desc>Created with Sketch.</desc>
    <g id="Welcome" stroke="none" stroke-width="1" fill="none" fill-rule="evenodd">
        <g id="home" transform="translate(-1117.000000, -208.000000)" fill="#FFFFFF" fill-rule="nonzero">
            <g id="search-box" transform="translate(889.000000, 150.000000)">
                <g id="search-icon-white" transform="translate(228.000000, 58.000000)">
                    <path d="M6.16530469,0 C2.76584766,0 0,2.76584766 0,6.16530469 C0,9.56495312 2.76584766,12.3306094 6.16530469,12.3306094 C9.56495312,12.3306094 12.3306094,9.56495312 12.3306094,6.16530469 C12.3306094,2.76584766 9.56495312,0 6.16530469,0 Z M6.16530469,11.1924258 C3.39338672,11.1924258 1.13821094,8.93725 1.13821094,6.16533203 C1.13821094,3.39341406 3.39338672,1.13821094 6.16530469,1.13821094 C8.93722266,1.13821094 11.1923984,3.39338672 11.1923984,6.16530469 C11.1923984,8.93722266 8.93722266,11.1924258 6.16530469,11.1924258 Z" id="Shape"></path>
                    <path d="M13.8332578,13.0285313 L10.5703828,9.76565625 C10.3480508,9.54332422 9.98798828,9.54332422 9.76565625,9.76565625 C9.54332422,9.98779688 9.54332422,10.3482422 9.76565625,10.5703828 L13.0285312,13.8332578 C13.1396836,13.9444102 13.285207,14 13.4308945,14 C13.5763906,14 13.7220781,13.9444102 13.8332578,13.8332578 C14.0555898,13.6111172 14.0555898,13.2506719 13.8332578,13.0285313 Z" id="Path"></path>
                </g>
            </g>
        </g>
    </g>
</svg>