<?xml version="1.0" encoding="UTF-8"?>
<svg width="24px" height="27px" viewBox="0 0 24 27" version="1.1" xmlns="http://www.w3.org/2000/svg" xmlns:xlink="http://www.w3.org/1999/xlink">
    <!-- Generator: Sketch 55.2 (78181) - https://sketchapp.com -->
    <title>site-management-icon</title>
    <desc>Created with Sketch.</desc>
    <g id="Welcome" stroke="none" stroke-width="1" fill="none" fill-rule="evenodd">
        <g id="home" transform="translate(-570.000000, -15.000000)" fill="#0089DD" fill-rule="nonzero">
            <g id="site-management-icon" transform="translate(570.000000, 15.000000)">
                <path d="M20.7584731,20.8797902 L19.7869938,10.8532246 C19.6750927,9.69801048 18.7424458,8.82692308 17.6175478,8.82692308 L13.7699983,8.82692308 C13.5413421,8.82692308 13.3560107,9.01815298 13.3560107,9.25420573 C13.3560107,9.49025848 13.5412904,9.68148839 13.7699983,9.68148839 L17.6175478,9.68148839 C18.3152903,9.68148839 18.8937472,10.2217608 18.9632013,10.93834 L19.9346806,20.9648524 C19.9731514,21.3623419 19.8513873,21.7442688 19.5917478,22.040334 C19.3320567,22.3364526 18.9759561,22.4994883 18.5890788,22.4994883 L2.18020365,22.4994883 C1.79327471,22.4994883 1.43722573,22.3364526 1.17758623,22.0402807 C0.917946742,21.7442155 0.796182637,21.3622886 0.834653484,20.9647991 L1.2583492,16.5916674 C1.28107023,16.3568938 1.11510338,16.1474896 0.887583174,16.1239856 C0.659856412,16.1007481 0.457226068,16.2717784 0.434453392,16.5066586 L0.0107576809,20.8797902 C-0.0503825655,21.511254 0.151111726,22.1431974 0.563653473,22.613704 C0.97619522,23.0842106 1.5653414,23.3540004 2.18020365,23.3540004 L8.8846138,23.3540004 L8.64717896,26.5399929 C8.62895049,26.7846265 8.82238914,27 9.05992726,27 L11.7093551,27 C11.9468416,27 12.1403319,26.7845199 12.1221035,26.5399929 L11.8846686,23.3540004 L18.5890271,23.3540004 C19.2038377,23.3540004 19.7930355,23.0842106 20.2055773,22.613704 C20.618119,22.1431974 20.8196133,21.5112007 20.7584731,20.8797902 Z M9.50691203,26.145488 L9.71496444,23.3540004 L11.054318,23.3540004 L11.2623704,26.145488 L9.50691203,26.145488 Z" id="Shape"></path>
                <path d="M12.0429485,9.34615385 L3.0936424,9.34615385 C1.95638065,9.34615385 1.01348291,10.1988277 0.900299681,11.3296223 L0.521334247,15.1169884 C0.498363481,15.3467992 0.666154486,15.5517769 0.896175385,15.5747841 C0.910323288,15.5761927 0.92436678,15.5769231 0.938305858,15.5769231 C1.15073324,15.5769231 1.33267215,15.4159251 1.35428555,15.2002524 L1.73325098,11.4128863 C1.80346844,10.7115589 2.38828326,10.1826549 3.09369461,10.1826549 L12.0430007,10.1826549 C12.2741701,10.1826549 12.4615385,9.99546729 12.4615385,9.76440436 C12.4615385,9.53334143 12.2741179,9.34615385 12.0429485,9.34615385 Z" id="Path"></path>
                <path d="M18.796364,17.8896265 L15.5235321,17.8896265 L15.3736468,14.3027427 L18.3536458,14.3027427 C18.5829004,14.3027427 18.7687168,14.117508 18.7687168,13.8888556 C18.7687168,13.6602549 18.5829522,13.4749685 18.3536458,13.4749685 L15.3390618,13.4749685 L15.2265055,10.7813209 C15.2169791,10.5529267 15.0240698,10.3750745 14.7945045,10.3850383 C14.565457,10.3945375 14.3875103,10.5874129 14.3970885,10.8158072 L14.5081952,13.4749685 L10.7995828,13.4749685 L10.7995828,10.7986157 C10.7995828,10.5700149 10.6138182,10.3846154 10.3845118,10.3846154 C10.1552572,10.3846154 9.96944091,10.5699633 9.96944091,10.7986157 L9.96944091,13.4749685 L6.26077674,13.4749685 L6.37188342,10.8158072 C6.38146158,10.5874129 6.20351487,10.3945375 5.97446737,10.3850383 C5.74453972,10.3747647 5.55199279,10.5529267 5.5424664,10.7813209 L5.42996183,13.4749685 L2.4154814,13.4749685 C2.1862268,13.4749685 2.00041047,13.6602033 2.00041047,13.8888556 C2.00041047,14.1174563 2.18617503,14.3027427 2.4154814,14.3027427 L5.39548045,14.3027427 L5.24559516,17.8896265 L1.97276323,17.8896265 C1.74350864,17.8896265 1.55769231,18.0748613 1.55769231,18.3035136 C1.55769231,18.5321144 1.74345687,18.7174007 1.97276323,18.7174007 L5.21101023,18.7174007 L5.09990356,21.3765621 C5.0903254,21.6049563 5.26827211,21.7978317 5.4973196,21.8073309 C5.50317005,21.8076923 5.50912404,21.8076923 5.51492271,21.8076923 C5.73615236,21.8076923 5.91994951,21.6336088 5.9292688,21.4110484 L6.04182515,18.7174007 L9.96954446,18.7174007 L9.96954446,21.3937536 C9.96954446,21.6223543 10.155309,21.8076923 10.3846154,21.8076923 C10.61387,21.8076923 10.7996863,21.6224059 10.7996863,21.3937536 L10.7996863,18.7174007 L14.7274056,18.7174007 L14.839962,21.4110484 C14.8492813,21.6335572 15.0330266,21.8076923 15.2543081,21.8076923 C15.2601067,21.8076923 15.2660607,21.8076923 15.2719112,21.8073309 C15.5009587,21.7978317 15.6789054,21.6049563 15.6693272,21.3765621 L15.5582205,18.7174007 L18.7964675,18.7174007 C19.0257221,18.7174007 19.2115385,18.532166 19.2115385,18.3035136 C19.2115385,18.0748613 19.0256186,17.8896265 18.796364,17.8896265 Z M9.96949268,17.8896265 L6.07641008,17.8896265 L6.22629536,14.3027427 L9.96954446,14.3027427 L9.96954446,17.8896265 L9.96949268,17.8896265 Z M10.7995828,17.8896265 L10.7995828,14.3027427 L14.5427801,14.3027427 L14.6926654,17.8896265 L10.7995828,17.8896265 Z" id="Shape"></path>
                <path d="M19.2115385,2.07692308 C17.780054,2.07692308 16.6153846,3.2415925 16.6153846,4.67307692 C16.6153846,6.10456134 17.780054,7.26923077 19.2115385,7.26923077 C20.6430229,7.26923077 21.8076923,6.10456134 21.8076923,4.67307692 C21.8076923,3.2415925 20.6430229,2.07692308 19.2115385,2.07692308 Z M19.2115385,6.44940617 C18.2320237,6.44940617 17.4352092,5.65259168 17.4352092,4.67307692 C17.4352092,3.69356217 18.2320237,2.89674768 19.2115385,2.89674768 C20.1910532,2.89674768 20.9878677,3.69356217 20.9878677,4.67307692 C20.9878677,5.65259168 20.1910021,6.44940617 19.2115385,6.44940617 Z" id="Shape"></path>
                <path d="M19.2115385,0 C18.9247536,0 18.6923077,0.22733374 18.6923077,0.507952785 L18.6923077,1.04973952 C18.6923077,1.33029521 18.9246889,1.55769231 19.2115385,1.55769231 C19.498388,1.55769231 19.7307692,1.33035857 19.7307692,1.04973952 L19.7307692,0.507952785 C19.7307045,0.22733374 19.4983233,0 19.2115385,0 Z" id="Path"></path>
                <path d="M18.1181133,1.02540243 L17.8994956,0.69701751 C17.7863012,0.526993501 17.5355248,0.468766708 17.3396074,0.56690524 C17.1435877,0.665088119 17.0764073,0.882518405 17.1896017,1.05254241 L17.4082194,1.38092734 C17.5198801,1.54860099 17.7744909,1.60802513 17.9681076,1.51103961 C18.1641273,1.41285673 18.2312566,1.19542644 18.1181133,1.02540243 Z" id="Path"></path>
                <path d="M16.437776,2.35085425 L16.1097201,2.13199301 C15.9399107,2.01867244 15.722654,2.08582537 15.6245695,2.28216581 C15.526485,2.47840388 15.5846977,2.72935725 15.7545514,2.84267783 L16.0826073,3.06153907 C16.2503788,3.17347768 16.4710025,3.10489161 16.5677579,2.91136627 C16.6657981,2.7151282 16.6076297,2.46417483 16.437776,2.35085425 Z" id="Path"></path>
                <path d="M16.1074318,4.15384615 L15.5656451,4.15384615 C15.2850894,4.15384615 15.0576923,4.38622734 15.0576923,4.67307692 C15.0576923,4.95986174 15.285026,5.19230769 15.5656451,5.19230769 L16.1074318,5.19230769 C16.3879875,5.19230769 16.6153846,4.9599265 16.6153846,4.67307692 C16.6153213,4.38629211 16.3879875,4.15384615 16.1074318,4.15384615 Z" id="Path"></path>
                <path d="M16.5677579,5.91673573 C16.4696291,5.72043576 16.2524167,5.65333035 16.0826073,5.76655474 L15.7545514,5.98542792 C15.5846977,6.09875468 15.526485,6.34972175 15.6245695,6.54597052 C15.7213249,6.73950642 15.9419486,6.80809624 16.1097201,6.69615151 L16.437776,6.47727833 C16.6076297,6.36395158 16.6657981,6.1129845 16.5677579,5.91673573 Z" id="Path"></path>
                <path d="M17.9678407,7.3168677 C17.7716169,7.21882634 17.5205651,7.27695118 17.4072232,7.44685113 L17.1883208,7.77491087 C17.0335636,8.00674567 17.2320911,8.30769231 17.5433461,8.30769231 C17.6852027,8.30769231 17.8230661,8.24398536 17.8991393,8.13008373 L18.1180417,7.80202398 C18.2313324,7.63216833 18.1641157,7.41495335 17.9678407,7.3168677 Z" id="Path"></path>
                <path d="M19.2115385,7.26923077 C18.9247536,7.26923077 18.6923077,7.49656451 18.6923077,7.77718355 L18.6923077,8.31897029 C18.6923077,8.59952598 18.9246889,8.82692308 19.2115385,8.82692308 C19.498388,8.82692308 19.7307692,8.59958934 19.7307692,8.31897029 L19.7307692,7.77718355 C19.7307045,7.49656451 19.4983233,7.26923077 19.2115385,7.26923077 Z" id="Path"></path>
                <path d="M21.7533644,7.77639073 L21.5345656,7.44737373 C21.4213039,7.276955 21.1703785,7.21869713 20.9743446,7.3169934 C20.7782084,7.41537855 20.710988,7.63325678 20.8242498,7.80363107 C20.8959208,7.91148146 20.9661595,8.02026504 21.0394164,8.12735998 C21.1916598,8.34968198 21.5655156,8.37545587 21.7379149,8.1541115 C21.8250354,8.04226172 21.8310208,7.89330642 21.7533644,7.77639073 Z" id="Path"></path>
                <path d="M23.1879349,5.98513459 L22.8598184,5.76651397 C22.6899334,5.65336911 22.4726809,5.72044822 22.3745783,5.91652167 C22.2764757,6.11254399 22.3346992,6.36322147 22.5045842,6.47641746 L22.8327006,6.69503808 C22.88862,6.73230993 22.9497237,6.75 23.0099854,6.75 C23.1753951,6.75 23.3225934,6.61323429 23.3575541,6.42667053 C23.3898561,6.25452469 23.3200677,6.07317592 23.1879349,5.98513459 Z" id="Path"></path>
                <path d="M23.3766626,4.15384615 L22.8348759,4.15384615 C22.5543202,4.15384615 22.3269231,4.38622734 22.3269231,4.67307692 C22.3269231,4.95986174 22.5542568,5.19230769 22.8348759,5.19230769 L23.3766626,5.19230769 C23.6572183,5.19230769 23.8846154,4.9599265 23.8846154,4.67307692 C23.8846154,4.38629211 23.6571549,4.15384615 23.3766626,4.15384615 Z" id="Path"></path>
                <path d="M23.317734,2.28190628 C23.2196409,2.08583283 23.0023207,2.01875373 22.8325406,2.13189859 C22.7298397,2.20030701 22.6270944,2.26881768 22.5243934,2.33722609 C22.3581579,2.4480191 22.2747299,2.67461559 22.3620568,2.8833175 C22.4208949,3.0238155 22.5471223,3.11538462 22.6823881,3.11538462 C22.7426441,3.11538462 22.8037861,3.09769455 22.8596558,3.0604227 L23.1877406,2.84180208 C23.3576093,2.72860609 23.4158272,2.47792861 23.317734,2.28190628 Z" id="Path"></path>
                <path d="M21.6027093,0.566933273 C21.4067493,0.468753172 21.156035,0.526978318 21.0428455,0.697041862 L20.8242374,1.02541749 C20.7109968,1.19543669 20.7782254,1.41286083 20.9742365,1.51104093 C21.1678448,1.60802371 21.4224445,1.54860125 21.5341003,1.38093234 L21.7527084,1.05255671 C21.8658979,0.882493163 21.7987204,0.665069029 21.6027093,0.566933273 Z" id="Path"></path>
                <path d="M5.1977086,4.88290306 C5.06517708,4.727713 4.92811097,4.56715645 4.90670024,4.4414273 C4.88505576,4.31476724 4.98846307,4.11001931 5.1977086,3.86480367 C5.34407762,3.69329511 5.34407762,3.41538771 5.1977086,3.2439339 C5.05129282,3.07253485 4.81404504,3.07253485 4.66767602,3.2439339 C3.7031177,4.37385337 4.3305738,5.10884315 4.66767602,5.50371807 C4.80016079,5.65885338 4.9372269,5.81930041 4.95863763,5.94513907 C4.98028211,6.07179913 4.8768748,6.27654707 4.66762927,6.5217627 C4.53121764,6.68160737 4.52210171,6.94560571 4.64776123,7.11744284 C4.78786598,7.30921263 5.04526229,7.32109557 5.1977086,7.14268723 C6.16226692,6.01276777 5.53481082,5.27777799 5.1977086,4.88290306 Z" id="Path"></path>
                <path d="M8.31309321,4.88278358 C8.18056169,4.72760401 8.04349559,4.56705831 8.02208485,4.44133767 C8.00044037,4.31468617 8.10384768,4.10995207 8.31309321,3.86475302 C8.45946224,3.69325604 8.45946224,3.41536743 8.31309321,3.24392521 C8.16667744,3.07253775 7.92942966,3.07253775 7.78306063,3.24392521 C6.81850231,4.3737683 7.44595841,5.10870839 7.78306063,5.50355663 C7.91559215,5.6587362 8.05265826,5.81922714 8.074069,5.94500254 C8.09571347,6.07165404 7.99230616,6.27638814 7.78306063,6.52158719 C7.63669161,6.69308417 7.63669161,6.97097278 7.78306063,7.142415 C7.92746623,7.31150269 8.16868762,7.31150269 8.31309321,7.142415 C9.27765154,6.01257191 8.65019543,5.27763182 8.31309321,4.88278358 Z" id="Path"></path>
                <path d="M11.4285003,4.88290306 C11.2959659,4.727713 11.1588969,4.56715645 11.1374857,4.4414273 C11.1158407,4.31476724 11.2192503,4.11001931 11.4285003,3.86480367 C11.5748725,3.69329511 11.5748725,3.41538771 11.4285003,3.2439339 C11.2820814,3.07253485 11.0448285,3.07253485 10.8984563,3.2439339 C9.93387723,4.37385337 10.5613468,5.10884315 10.8984563,5.50371807 C11.0309439,5.65885338 11.168013,5.81930041 11.1894242,5.94513907 C11.2110691,6.07179913 11.1076596,6.27654707 10.8984096,6.5217627 C10.761995,6.68160737 10.7528789,6.94560571 10.8785411,7.11744284 C11.0186489,7.30921263 11.2760507,7.32109557 11.4285003,7.14268723 C12.3930326,6.01276777 11.765563,5.27777799 11.4285003,4.88290306 Z" id="Path"></path>
            </g>
        </g>
    </g>
</svg>