<?xml version="1.0" encoding="UTF-8"?>
<svg width="32px" height="32px" viewBox="0 0 32 32" version="1.1" xmlns="http://www.w3.org/2000/svg" xmlns:xlink="http://www.w3.org/1999/xlink">
    <!-- Generator: Sketch 55.2 (78181) - https://sketchapp.com -->
    <title>user-avatar-icon</title>
    <desc>Created with Sketch.</desc>
    <g id="Welcome" stroke="none" stroke-width="1" fill="none" fill-rule="evenodd">
        <g id="home" transform="translate(-995.000000, -16.000000)" fill="#9BBDD1" fill-rule="nonzero">
            <g id="user-avatar-icon" transform="translate(995.000000, 16.000000)">
                <path d="M28.8319375,6.4411875 C28.6753125,6.23125 28.378125,6.188 28.168125,6.3446875 C27.9581875,6.5013125 27.9149375,6.7985 28.071625,7.0085 C30.021,9.62125 31.051375,12.7305 31.051375,16.000125 C31.051375,20.0204375 29.48575,23.8001875 26.6429375,26.643 C23.800125,29.4858125 20.020375,31.051375 16,31.051375 C11.9796875,31.051375 8.1999375,29.48575 5.357125,26.6429375 C2.5143125,23.800125 0.948625,20.0203125 0.948625,16 C0.948625,11.9796875 2.51425,8.1999375 5.3570625,5.357125 C8.199875,2.5143125 11.979625,0.948625 16,0.948625 C19.9415625,0.948625 23.668,2.4616875 26.493,5.2091875 C26.68075,5.3918125 26.9810625,5.3876875 27.1636875,5.199875 C27.3463125,5.012125 27.342125,4.7118125 27.154375,4.5291875 C24.1513125,1.6085 20.19,0 16,0 C11.72625,0 7.7083125,1.6643125 4.6863125,4.6863125 C1.6643125,7.7083125 0,11.72625 0,16 C0,20.27375 1.6643125,24.2916875 4.6863125,27.3136875 C7.7083125,30.3356875 11.72625,32 16,32 C20.27375,32 24.2916875,30.3356875 27.3136875,27.3136875 C30.3356875,24.2916875 32,20.27375 32,16 C32,12.5244375 30.9045,9.219 28.8319375,6.4411875 Z" id="Path"></path>
                <path d="M16,7.31428571 C13.7313563,7.31428571 11.8857143,9.15992776 11.8857143,11.4285714 C11.8857143,13.6972151 13.7313563,15.5428571 16,15.5428571 C18.2686437,15.5428571 20.1142857,13.6972151 20.1142857,11.4285714 C20.1142857,9.15992776 18.2686437,7.31428571 16,7.31428571 Z M16,14.5871682 C14.2583138,14.5871682 12.8414033,13.1702576 12.8414033,11.4285714 C12.8414033,9.68688527 14.2583138,8.26997468 16,8.26997468 C17.7416232,8.26997468 19.1585967,9.68688527 19.1585967,11.4285714 C19.1585967,13.1702576 17.7416862,14.5871682 16,14.5871682 Z" id="Shape"></path>
                <path d="M19.1046659,16.4571429 L11.9811093,16.4571429 C10.9282325,16.4571429 9.89589392,16.8342852 9.07417948,17.519118 C8.87446442,17.6856112 8.84161535,17.9897973 9.00080233,18.1986624 C9.15998931,18.4074 9.45093826,18.4417436 9.65077522,18.2753779 C10.3188486,17.718553 11.1246565,17.4243068 11.9811093,17.4243068 L19.1046659,17.4243068 C21.1678804,17.4243068 22.8464132,19.1792069 22.8464132,21.3362903 L22.8464132,23.7093113 C22.8464132,23.7144724 22.8423909,23.7186778 22.8373935,23.7186778 L20.7622339,23.7186778 L20.7622339,21.4247935 C20.7622339,21.1577546 20.5551445,20.9412434 20.2997262,20.9412434 C20.0443079,20.9412434 19.8372186,21.1577546 19.8372186,21.4247935 L19.8372186,23.7186778 L11.3522232,23.7186778 L11.3522232,21.4247935 C11.3522232,21.1577546 11.1451339,20.9412434 10.8897156,20.9412434 C10.6342972,20.9412434 10.4272079,21.1577546 10.4272079,21.4247935 L10.4272079,23.7186778 L8.24832083,23.7186778 C8.24338432,23.7186778 8.23936199,23.7144724 8.23936199,23.7093113 L8.23936199,21.3362903 C8.23936199,20.6738222 8.40043825,20.0195099 8.70528254,19.4440795 C8.82906078,19.2104284 8.7482484,18.9161822 8.52476499,18.7867725 C8.30128158,18.6573628 8.01983997,18.7418518 7.89606173,18.9755029 C7.51546345,19.6939785 7.31428571,20.5103237 7.31428571,21.3362266 L7.31428571,23.7092476 C7.31428571,24.2476583 7.73327902,24.6857143 8.24825988,24.6857143 L22.8373935,24.6857143 C23.3524353,24.6857143 23.7714286,24.2476583 23.7714286,23.7092476 L23.7714286,21.3362266 C23.7714286,18.6458937 21.6779247,16.4571429 19.1046659,16.4571429 Z" id="Path"></path>
            </g>
        </g>
    </g>
</svg>