<?xml version="1.0" encoding="UTF-8"?>
<svg width="25px" height="25px" viewBox="0 0 25 25" version="1.1" xmlns="http://www.w3.org/2000/svg" xmlns:xlink="http://www.w3.org/1999/xlink">
    <!-- Generator: Sketch 55.2 (78181) - https://sketchapp.com -->
    <title>user-management-icon</title>
    <desc>Created with Sketch.</desc>
    <g id="Welcome" stroke="none" stroke-width="1" fill="none" fill-rule="evenodd">
        <g id="home" transform="translate(-769.000000, -17.000000)" fill="#0089DD" fill-rule="nonzero">
            <g id="user-management-icon" transform="translate(769.000000, 17.000000)">
                <path d="M20,0 C18.3446602,0 17,1.34466019 17,3 C17,4.65533981 18.3446602,6 20,6 C21.6553398,6 23,4.65533981 23,3 C23,1.34466019 21.6553398,0 20,0 Z M20,4.81067961 C19,4.81067961 18.1893204,4 18.1893204,3 C18.1893204,2 19,1.18932039 20,1.18932039 C21,1.18932039 21.8106796,2 21.8106796,3 C21.8106796,4 21,4.81067961 20,4.81067961 Z" id="Shape"></path>
                <path d="M12,6 C13.6553398,6 15,4.65533981 15,3 C15,1.34466019 13.6553398,0 12,0 C10.3446602,0 9,1.34466019 9,3 C9,4.65533981 10.3446602,6 12,6 Z M12,1.18932039 C13,1.18932039 13.8106796,2 13.8106796,3 C13.8106796,4 13,4.81067961 12,4.81067961 C11,4.81067961 10.1893204,4 10.1893204,3 C10.1893204,2.00485437 11,1.18932039 12,1.18932039 Z" id="Shape"></path>
                <path d="M21.7065144,7 L18.8804567,7 C18.5151108,7 18.2196105,7.28679027 18.2196105,7.64136732 C18.2196105,7.99594438 18.5151108,8.28273465 18.8804567,8.28273465 L21.7065144,8.28273465 C22.7971793,8.28273465 23.6836803,9.14310545 23.6836803,10.2016222 L23.6836803,14.2844728 C23.6836803,15.0822711 23.1625252,15.8070684 22.3834788,16.0834299 C22.1255876,16.1772885 21.9536602,16.4171495 21.9536602,16.6830823 L21.9536602,22.4501738 C21.9536602,23.1488992 21.3680322,23.7172654 20.648086,23.7172654 L17.6608462,23.7172654 C17.2955003,23.7172654 17,24.0040556 17,24.3586327 C17,24.7132097 17.2955003,25 17.6608462,25 L20.648086,25 C22.0933512,25 23.2699799,23.8580533 23.2699799,22.4553882 L23.2699799,17.0845886 C24.3230356,16.5318656 25,15.4524913 25,14.274044 L25,10.1911935 C25,8.42873696 23.5224983,7 21.7065144,7 Z" id="Path"></path>
                <path d="M11.0978411,25 L13.9072118,25 C15.2664217,25 16.3729904,23.8573913 16.3729904,22.453913 L16.3729904,17.0956522 C17.3633441,16.5426087 18,15.4626087 18,14.2834783 L18,10.1982609 C18,8.43478261 16.6104731,7 14.9026183,7 L10.0973817,7 C8.38952687,7 7,8.43478261 7,10.1982609 L7,14.2834783 C7,15.4626087 7.63665595,16.5426087 8.62700965,17.0956522 L8.62700965,22.453913 C8.63206247,23.8573913 9.73863114,25 11.0978411,25 Z M8.24299495,14.2834783 L8.24299495,10.1982609 C8.24299495,9.13913043 9.07671107,8.27826087 10.1024345,8.27826087 L14.9076711,8.27826087 C15.9333946,8.27826087 16.7671107,9.13913043 16.7671107,10.1982609 L16.7671107,14.2834783 C16.7671107,15.0817391 16.2769867,15.8069565 15.5493799,16.0834783 C15.3068443,16.1773913 15.1451539,16.4173913 15.1451539,16.6834783 L15.1451539,22.453913 C15.1451539,23.1530435 14.594396,23.7217391 13.9173174,23.7217391 L11.1079467,23.7217391 C10.4308682,23.7217391 9.88011024,23.1530435 9.88011024,22.453913 L9.88011024,16.6834783 C9.88011024,16.4173913 9.71841984,16.1773913 9.47588424,16.0834783 C8.73311897,15.8069565 8.24299495,15.0817391 8.24299495,14.2834783 Z" id="Shape"></path>
                <path d="M8,3 C8,1.34466019 6.65533981,0 5,0 C3.34466019,0 2,1.34466019 2,3 C2,4.65533981 3.34466019,6 5,6 C6.65048544,6 8,4.65533981 8,3 Z M3.18932039,3 C3.18932039,2.00485437 4,1.18932039 5,1.18932039 C6,1.18932039 6.81067961,2 6.81067961,3 C6.81067961,4 6,4.81067961 5,4.81067961 C4,4.81067961 3.18932039,4 3.18932039,3 Z" id="Shape"></path>
                <path d="M4.35191404,25 L7.33915379,25 C7.70449966,25 8,24.7131266 8,24.3584468 C8,24.003767 7.70449966,23.7168937 7.33915379,23.7168937 L4.35191404,23.7168937 C3.63196776,23.7168937 3.04633983,23.1483628 3.04633983,22.4494349 L3.04633983,16.6858881 C3.04633983,16.4198783 2.87441236,16.1799478 2.61652116,16.086062 C1.84284755,15.8096204 1.32169241,15.089829 1.32169241,14.2865836 L1.32169241,10.20255 C1.32169241,9.14372646 2.20819342,8.28310635 3.29885829,8.28310635 L6.11417058,8.28310635 C6.47951645,8.28310635 6.77501679,7.99623298 6.77501679,7.64155317 C6.77501679,7.28687337 6.47951645,7 6.11417058,7 L3.29348556,7 C1.47750168,7 0,8.43436685 0,10.1973341 L0,14.2813677 C0,15.4601565 0.676964406,16.5398435 1.73002015,17.0927267 L1.73002015,22.4494349 C1.73002015,23.8577224 2.90664876,25 4.35191404,25 Z" id="Path"></path>
            </g>
        </g>
    </g>
</svg>